<svg width="24.000000" height="24.000000" viewBox="0 0 24 24" fill="none" xmlns="http://www.w3.org/2000/svg" xmlns:xlink="http://www.w3.org/1999/xlink">
	<desc>
			Created with Pixso.
	</desc>
	<defs>
		<clipPath id="clip2_65">
			<rect id="mdi:github" rx="0.000000" width="23.000000" height="23.000000" transform="translate(0.500000 0.500000)" fill="white" fill-opacity="0"/>
		</clipPath>
	</defs>
	<rect id="mdi:github" rx="0.000000" width="23.000000" height="23.000000" transform="translate(0.500000 0.500000)" fill="#FFFFFF" fill-opacity="0"/>
	<g clip-path="url(#clip2_65)">
		<path id="Vector" d="M12 2C10.68 2 9.38 2.25 8.17 2.76C6.95 3.26 5.85 4 4.92 4.92C3.05 6.8 2 9.34 2 12C2 16.42 4.87 20.17 8.84 21.5C9.34 21.58 9.5 21.27 9.5 21L9.5 19.31C6.72 19.91 6.14 17.96 6.14 17.96C5.67 16.81 5.03 16.5 5.03 16.5C4.12 15.88 5.09 15.9 5.09 15.9C6.09 15.97 6.63 16.93 6.63 16.93C7.5 18.45 8.96 18 9.53 17.76C9.63 17.11 9.89 16.67 10.17 16.42C7.95 16.17 5.62 15.31 5.62 11.5C5.62 10.39 6 9.5 6.65 8.79C6.54 8.54 6.2 7.5 6.75 6.14C6.75 6.14 7.59 5.88 9.5 7.17C10.29 6.95 11.15 6.84 12 6.84C12.85 6.84 13.71 6.95 14.5 7.17C16.41 5.88 17.25 6.14 17.25 6.14C17.79 7.5 17.45 8.54 17.35 8.79C18 9.5 18.37 10.39 18.37 11.5C18.37 15.32 16.04 16.16 13.81 16.41C14.17 16.71 14.5 17.33 14.5 18.26L14.5 21C14.5 21.27 14.66 21.59 15.17 21.5C19.14 20.16 22 16.42 22 12C22 10.68 21.74 9.38 21.23 8.17C20.73 6.95 19.99 5.85 19.07 4.92C18.14 4 17.04 3.26 15.82 2.76C14.61 2.25 13.31 2 12 2Z" fill="#FFFFFF" fill-opacity="1.000000" fill-rule="nonzero"/>
	</g>
</svg>
