<svg width="20.841553" height="12.381470" viewBox="0 0 20.8416 12.3815" fill="none" xmlns="http://www.w3.org/2000/svg" xmlns:xlink="http://www.w3.org/1999/xlink">
	<desc>
			Created with Pixso.
	</desc>
	<defs/>
	<path id="vk" d="M20 12.38L17.72 12.38C16.85 12.38 16.59 11.68 15.05 10.13C13.7 8.83 13.12 8.66 12.78 8.66C12.31 8.66 12.18 8.79 12.18 9.44L12.18 11.5C12.18 12.05 12 12.38 10.55 12.38C9.14 12.28 7.78 11.85 6.57 11.13C5.36 10.4 4.34 9.4 3.59 8.21C1.82 6 0.59 3.41 0 0.65C0 0.31 0.13 0 0.78 0L3.06 0C3.64 0 3.85 0.26 4.08 0.86C5.19 4.12 7.08 6.95 7.85 6.95C8.14 6.95 8.27 6.82 8.27 6.09L8.27 2.73C8.17 1.2 7.36 1.07 7.36 0.52C7.37 0.37 7.44 0.24 7.55 0.14C7.65 0.04 7.8 -0.01 7.94 0L11.53 0C12.02 0 12.18 0.24 12.18 0.83L12.18 5.36C12.18 5.85 12.39 6.01 12.54 6.01C12.83 6.01 13.06 5.85 13.6 5.31C14.75 3.9 15.7 2.33 16.4 0.65C16.47 0.45 16.61 0.27 16.79 0.16C16.97 0.04 17.18 -0.02 17.39 0L19.67 0C20.36 0 20.5 0.34 20.36 0.83C19.53 2.69 18.5 4.45 17.29 6.09C17.05 6.46 16.95 6.66 17.29 7.1C17.52 7.44 18.32 8.11 18.86 8.74C19.64 9.52 20.29 10.43 20.78 11.41C20.98 12.05 20.65 12.38 20 12.38Z" fill="#FFFFFF" fill-opacity="1.000000" fill-rule="nonzero"/>
</svg>
