<svg width="20.000000" height="19.814026" viewBox="0 0 20 19.814" fill="none" xmlns="http://www.w3.org/2000/svg" xmlns:xlink="http://www.w3.org/1999/xlink">
	<desc>
			Created with Pixso.
	</desc>
	<defs/>
	<path id="Vector" d="M10.59 19.25L10.58 19.26L10.51 19.29L10.49 19.29L10.47 19.29L10.4 19.26C10.39 19.25 10.38 19.25 10.38 19.26L10.37 19.27L10.36 19.7L10.36 19.72L10.37 19.73L10.48 19.81L10.49 19.81L10.5 19.81L10.61 19.73L10.62 19.71L10.62 19.7L10.61 19.27C10.6 19.26 10.6 19.25 10.59 19.25ZM10.85 19.14L10.84 19.14L10.66 19.24L10.65 19.25L10.64 19.26L10.66 19.69L10.67 19.7L10.67 19.7L10.87 19.8C10.89 19.8 10.9 19.8 10.9 19.79L10.91 19.78L10.87 19.16C10.87 19.15 10.86 19.14 10.85 19.14ZM10.14 19.14C10.13 19.14 10.13 19.14 10.12 19.14C10.12 19.14 10.11 19.14 10.11 19.15L10.1 19.16L10.07 19.78C10.07 19.79 10.08 19.8 10.09 19.8L10.1 19.8L10.3 19.7L10.31 19.7L10.32 19.69L10.34 19.26L10.33 19.24L10.32 19.23L10.14 19.14Z" fill="#F4F4F4" fill-opacity="1.000000" fill-rule="evenodd"/>
	<path id="Vector" d="M10 0C10.85 0 11.73 0.02 12.58 0.05L13.58 0.1L14.54 0.16L15.44 0.22L16.26 0.28C17.16 0.35 18 0.73 18.64 1.36C19.27 1.98 19.67 2.82 19.76 3.71L19.8 4.13L19.87 5.04C19.94 5.98 20 7.01 20 8C20 8.98 19.94 10.01 19.87 10.95L19.8 11.86L19.76 12.28C19.67 13.17 19.27 14.01 18.63 14.63C18 15.26 17.16 15.64 16.26 15.71L15.44 15.77L14.54 15.83L13.58 15.89L12.58 15.94C11.72 15.97 10.86 15.99 10 16C9.13 15.99 8.27 15.97 7.41 15.94L6.41 15.89L5.45 15.83L4.55 15.77L3.73 15.71C2.83 15.64 1.99 15.26 1.36 14.63C0.72 14.01 0.32 13.17 0.23 12.28L0.19 11.86L0.12 10.95C0.04 9.97 0 8.98 0 8C0 7.01 0.05 5.98 0.12 5.04L0.19 4.13L0.23 3.71C0.32 2.82 0.72 1.98 1.35 1.36C1.99 0.73 2.83 0.35 3.72 0.28L4.55 0.22L5.45 0.16L6.41 0.1L7.41 0.05C8.27 0.02 9.13 0 10 0ZM8 5.57L8 10.42C8 10.88 8.5 11.17 8.9 10.94L13.1 8.51C13.19 8.46 13.26 8.39 13.32 8.3C13.37 8.2 13.4 8.1 13.4 8C13.4 7.89 13.37 7.79 13.32 7.69C13.26 7.6 13.19 7.53 13.1 7.48L8.9 5.05C8.8 5 8.7 4.97 8.59 4.97C8.49 4.97 8.39 5 8.29 5.05C8.2 5.1 8.13 5.18 8.08 5.27C8.02 5.36 7.99 5.47 8 5.57L8 5.57Z" fill="#F4F4F4" fill-opacity="1.000000" fill-rule="evenodd"/>
</svg>
